<?xml version="1.0" standalone="no"?>
<!DOCTYPE svg PUBLIC "-//W3C//DTD SVG 20010904//EN"
 "http://www.w3.org/TR/2001/REC-SVG-20010904/DTD/svg10.dtd">
<svg version="1.0" xmlns="http://www.w3.org/2000/svg"
 width="64.000000pt" height="64.000000pt" viewBox="0 0 64.000000 64.000000"
 preserveAspectRatio="xMidYMid meet">

<g transform="translate(0.000000,64.000000) scale(0.100000,-0.100000)"
fill="#000000" stroke="none">
<path d="M476 578 c-8 -13 -33 -54 -54 -91 -22 -38 -43 -64 -46 -58 -4 6 -23
15 -43 20 -69 19 -96 -23 -48 -76 l25 -28 -17 32 c-23 42 -10 56 45 47 37 -6
40 -8 31 -26 -6 -11 -17 -17 -24 -14 -8 3 -17 1 -21 -5 -8 -14 15 -39 38 -39
15 0 17 4 9 18 -8 16 4 36 70 117 44 54 78 103 76 109 -7 20 -26 17 -41 -6z"/>
<path d="M171 567 c-77 -27 -95 -105 -45 -197 82 -150 304 -258 427 -207 90
38 81 156 -20 268 -55 61 -68 65 -93 28 -12 -16 -19 -33 -16 -37 4 -3 12 0 17
8 9 13 10 13 6 0 -2 -8 18 -40 45 -70 27 -30 55 -62 62 -71 20 -24 6 -78 -27
-102 -27 -21 -27 -21 -84 -2 l-58 20 55 5 c30 3 57 2 58 -3 2 -4 8 -5 13 -1
14 8 11 62 -7 95 -19 37 -83 109 -96 109 -6 0 8 -20 31 -45 31 -34 41 -53 41
-79 0 -38 -12 -46 -68 -46 -56 0 -132 41 -184 99 -55 61 -86 140 -70 176 13
27 58 40 93 26 l24 -10 -26 0 c-15 -1 -33 -9 -40 -18 -12 -15 -12 -16 1 -8 12
6 13 5 3 -6 -15 -16 -17 -58 -3 -93 26 -70 162 -152 209 -126 12 6 21 16 21
23 0 19 -39 77 -51 77 -8 0 -6 -7 4 -18 18 -20 23 -57 7 -47 -5 3 -10 1 -10
-4 0 -35 -119 28 -143 76 -26 51 -29 70 -12 87 19 19 89 21 132 5 24 -9 30 -7
46 12 18 23 18 23 -20 43 -40 20 -134 46 -168 45 -11 0 -35 -5 -54 -12z m314
-117 c-3 -5 -10 -10 -16 -10 -5 0 -9 5 -9 10 0 6 7 10 16 10 8 0 12 -4 9 -10z"/>
<path d="M46 432 c-3 -5 1 -9 9 -9 8 0 12 4 9 9 -3 4 -7 8 -9 8 -2 0 -6 -4 -9
-8z"/>
<path d="M31 394 c0 -11 3 -14 6 -6 3 7 2 16 -1 19 -3 4 -6 -2 -5 -13z"/>
<path d="M68 383 c-2 -16 -8 -27 -16 -25 -10 2 -10 -2 0 -18 l13 -21 3 21 c2
11 7 18 11 16 4 -3 5 8 3 25 -5 36 -10 37 -14 2z"/>
<path d="M101 316 c-1 -24 -3 -27 -16 -16 -12 10 -15 9 -15 -6 -1 -16 -3 -15
-15 6 -8 14 -14 20 -15 14 0 -7 9 -22 20 -35 17 -21 19 -22 20 -6 0 10 4 16 9
12 5 -3 12 -1 16 4 3 6 13 7 23 4 16 -5 16 -5 1 8 -9 8 -19 21 -22 29 -3 8 -6
2 -6 -14z"/>
<path d="M145 250 c-3 -5 -12 -7 -19 -4 -22 9 -25 -21 -4 -47 17 -21 18 -21 9
-2 -17 34 -14 49 7 30 16 -14 17 -14 17 9 0 27 -1 28 -10 14z"/>
<path d="M196 215 c4 -8 11 -15 16 -15 6 0 5 6 -2 15 -7 8 -14 15 -16 15 -2 0
-1 -7 2 -15z"/>
<path d="M230 196 c0 -2 7 -7 16 -10 8 -3 12 -2 9 4 -6 10 -25 14 -25 6z"/>
<path d="M198 177 c24 -29 8 -40 -23 -15 -20 15 -25 16 -16 5 24 -30 50 -40
65 -25 11 11 9 17 -13 33 -20 14 -23 15 -13 2z"/>
<path d="M268 163 c7 -3 16 -2 19 1 4 3 -2 6 -13 5 -11 0 -14 -3 -6 -6z"/>
<path d="M308 149 c17 -18 15 -29 -5 -30 -14 0 -13 -2 4 -9 14 -6 21 -15 17
-24 -7 -19 2 -23 61 -30 38 -4 44 -3 25 4 -22 8 -21 9 11 7 27 -2 35 1 32 10
-3 7 1 13 8 13 9 1 7 6 -5 15 -11 8 -25 15 -30 15 -6 0 -3 -5 7 -11 23 -13 13
-29 -20 -29 -18 0 -24 4 -20 14 3 8 -2 20 -11 28 -15 12 -16 11 -3 -4 12 -16
11 -18 -16 -18 -35 0 -47 9 -33 24 6 8 2 16 -13 25 -18 11 -20 11 -9 0z m77
-69 c4 -6 -7 -10 -24 -10 -17 0 -31 5 -31 10 0 6 11 10 24 10 14 0 28 -4 31
-10z"/>
<path d="M260 136 c12 -15 12 -20 2 -24 -16 -5 15 -32 38 -31 8 0 5 4 -7 9
-13 6 -20 15 -17 23 3 8 -3 20 -13 28 -17 13 -17 13 -3 -5z"/>
<path d="M498 103 c13 -3 19 -9 16 -15 -4 -7 -2 -8 4 -4 21 13 13 26 -15 25
-24 -2 -25 -2 -5 -6z"/>
</g>
</svg>
